<svg width="1512" height="80" viewBox="0 0 1512 80" fill="none" xmlns="http://www.w3.org/2000/svg">
<path fill-rule="evenodd" clip-rule="evenodd" d="M126 40L139.502 26.3449C139.956 25.885 140.694 25.885 141.148 26.3449C141.603 26.8047 141.603 27.5502 141.148 28.0101L129.293 40L141.147 51.99C141.602 52.4498 141.602 53.1954 141.147 53.6552C140.692 54.115 139.955 54.1149 139.501 53.6551L126 40Z" fill="#032C17"/>
<path fill-rule="evenodd" clip-rule="evenodd" d="M127.329 40C127.329 39.3497 127.85 38.8225 128.493 38.8225L164.836 38.8225C165.479 38.8225 166 39.3497 166 40C166 40.6503 165.479 41.1775 164.836 41.1775L128.493 41.1775C127.85 41.1775 127.329 40.6503 127.329 40Z" fill="#032C17"/>
<path d="M207.384 32.098H200.004V53.5H193.92V32.098H186.54V27.274H207.384V32.098ZM217.684 41.926C217.684 41.482 217.624 41.05 217.504 40.63C217.396 40.21 217.21 39.838 216.946 39.514C216.694 39.178 216.358 38.908 215.938 38.704C215.518 38.5 215.008 38.398 214.408 38.398C213.352 38.398 212.524 38.704 211.924 39.316C211.324 39.916 210.928 40.786 210.736 41.926H217.684ZM210.664 45.166C210.844 46.726 211.318 47.86 212.086 48.568C212.854 49.264 213.844 49.612 215.056 49.612C215.704 49.612 216.262 49.534 216.73 49.378C217.198 49.222 217.612 49.048 217.972 48.856C218.344 48.664 218.68 48.49 218.98 48.334C219.292 48.178 219.616 48.1 219.952 48.1C220.396 48.1 220.732 48.262 220.96 48.586L222.58 50.584C222.004 51.244 221.38 51.784 220.708 52.204C220.048 52.612 219.364 52.936 218.656 53.176C217.96 53.404 217.258 53.56 216.55 53.644C215.854 53.74 215.188 53.788 214.552 53.788C213.244 53.788 212.014 53.578 210.862 53.158C209.722 52.726 208.72 52.09 207.856 51.25C207.004 50.41 206.326 49.366 205.822 48.118C205.33 46.87 205.084 45.418 205.084 43.762C205.084 42.514 205.294 41.332 205.714 40.216C206.146 39.1 206.758 38.122 207.55 37.282C208.354 36.442 209.32 35.776 210.448 35.284C211.588 34.792 212.872 34.546 214.3 34.546C215.536 34.546 216.664 34.738 217.684 35.122C218.716 35.506 219.598 36.064 220.33 36.796C221.074 37.528 221.65 38.428 222.058 39.496C222.478 40.552 222.688 41.752 222.688 43.096C222.688 43.516 222.67 43.858 222.634 44.122C222.598 44.386 222.532 44.596 222.436 44.752C222.34 44.908 222.208 45.016 222.04 45.076C221.884 45.136 221.68 45.166 221.428 45.166H210.664ZM231.128 36.85C231.488 36.514 231.86 36.202 232.244 35.914C232.628 35.626 233.036 35.386 233.468 35.194C233.912 34.99 234.386 34.834 234.89 34.726C235.406 34.606 235.964 34.546 236.564 34.546C237.584 34.546 238.484 34.726 239.264 35.086C240.056 35.434 240.722 35.926 241.262 36.562C241.802 37.186 242.21 37.936 242.486 38.812C242.762 39.676 242.9 40.618 242.9 41.638V53.5H237.32V41.638C237.32 40.726 237.11 40.018 236.69 39.514C236.27 38.998 235.652 38.74 234.836 38.74C234.224 38.74 233.648 38.872 233.108 39.136C232.58 39.388 232.064 39.736 231.56 40.18V53.5H225.98V34.834H229.436C230.132 34.834 230.588 35.146 230.804 35.77L231.128 36.85ZM253.443 53.788C252.555 53.788 251.769 53.662 251.085 53.41C250.413 53.146 249.843 52.78 249.375 52.312C248.919 51.832 248.571 51.256 248.331 50.584C248.091 49.912 247.971 49.162 247.971 48.334V38.686H246.387C246.099 38.686 245.853 38.596 245.649 38.416C245.445 38.224 245.343 37.948 245.343 37.588V35.41L248.313 34.834L249.411 30.28C249.555 29.704 249.963 29.416 250.635 29.416H253.551V34.87H258.177V38.686H253.551V47.956C253.551 48.388 253.653 48.748 253.857 49.036C254.073 49.312 254.379 49.45 254.775 49.45C254.979 49.45 255.147 49.432 255.279 49.396C255.423 49.348 255.543 49.3 255.639 49.252C255.747 49.192 255.843 49.144 255.927 49.108C256.023 49.06 256.131 49.036 256.251 49.036C256.419 49.036 256.551 49.078 256.647 49.162C256.755 49.234 256.863 49.354 256.971 49.522L258.663 52.168C257.943 52.708 257.133 53.116 256.233 53.392C255.333 53.656 254.403 53.788 253.443 53.788ZM270.711 45.904C269.595 45.952 268.677 46.048 267.957 46.192C267.237 46.336 266.667 46.516 266.247 46.732C265.827 46.948 265.533 47.194 265.365 47.47C265.209 47.746 265.131 48.046 265.131 48.37C265.131 49.006 265.305 49.456 265.653 49.72C266.001 49.972 266.511 50.098 267.183 50.098C267.903 50.098 268.533 49.972 269.073 49.72C269.613 49.468 270.159 49.06 270.711 48.496V45.904ZM260.667 37.426C261.795 36.43 263.043 35.692 264.411 35.212C265.791 34.72 267.267 34.474 268.839 34.474C269.967 34.474 270.981 34.66 271.881 35.032C272.793 35.392 273.561 35.902 274.185 36.562C274.821 37.21 275.307 37.984 275.643 38.884C275.979 39.784 276.147 40.768 276.147 41.836V53.5H273.591C273.063 53.5 272.661 53.428 272.385 53.284C272.121 53.14 271.899 52.84 271.719 52.384L271.323 51.358C270.855 51.754 270.405 52.102 269.973 52.402C269.541 52.702 269.091 52.96 268.623 53.176C268.167 53.38 267.675 53.53 267.147 53.626C266.631 53.734 266.055 53.788 265.419 53.788C264.567 53.788 263.793 53.68 263.097 53.464C262.401 53.236 261.807 52.906 261.315 52.474C260.835 52.042 260.463 51.508 260.199 50.872C259.935 50.224 259.803 49.48 259.803 48.64C259.803 47.968 259.971 47.29 260.307 46.606C260.643 45.91 261.225 45.28 262.053 44.716C262.881 44.14 263.997 43.66 265.401 43.276C266.805 42.892 268.575 42.676 270.711 42.628V41.836C270.711 40.744 270.483 39.958 270.027 39.478C269.583 38.986 268.947 38.74 268.119 38.74C267.459 38.74 266.919 38.812 266.499 38.956C266.079 39.1 265.701 39.262 265.365 39.442C265.041 39.622 264.723 39.784 264.411 39.928C264.099 40.072 263.727 40.144 263.295 40.144C262.911 40.144 262.587 40.048 262.323 39.856C262.059 39.664 261.843 39.436 261.675 39.172L260.667 37.426ZM285.362 36.85C285.722 36.514 286.094 36.202 286.478 35.914C286.862 35.626 287.27 35.386 287.702 35.194C288.146 34.99 288.62 34.834 289.124 34.726C289.64 34.606 290.198 34.546 290.798 34.546C291.818 34.546 292.718 34.726 293.498 35.086C294.29 35.434 294.956 35.926 295.496 36.562C296.036 37.186 296.444 37.936 296.72 38.812C296.996 39.676 297.134 40.618 297.134 41.638V53.5H291.554V41.638C291.554 40.726 291.344 40.018 290.924 39.514C290.504 38.998 289.886 38.74 289.07 38.74C288.458 38.74 287.882 38.872 287.342 39.136C286.814 39.388 286.298 39.736 285.794 40.18V53.5H280.214V34.834H283.67C284.366 34.834 284.822 35.146 285.038 35.77L285.362 36.85ZM308.355 43.186C309.279 43.186 309.945 42.958 310.353 42.502C310.773 42.034 310.983 41.434 310.983 40.702C310.983 39.946 310.773 39.352 310.353 38.92C309.945 38.488 309.279 38.272 308.355 38.272C307.431 38.272 306.759 38.488 306.339 38.92C305.931 39.352 305.727 39.946 305.727 40.702C305.727 41.062 305.775 41.392 305.871 41.692C305.979 41.992 306.141 42.256 306.357 42.484C306.573 42.7 306.843 42.874 307.167 43.006C307.503 43.126 307.899 43.186 308.355 43.186ZM312.675 54.184C312.675 53.74 312.477 53.422 312.081 53.23C311.685 53.026 311.169 52.882 310.533 52.798C309.897 52.714 309.183 52.666 308.391 52.654C307.611 52.63 306.831 52.582 306.051 52.51C305.703 52.75 305.415 53.02 305.187 53.32C304.971 53.608 304.863 53.938 304.863 54.31C304.863 54.574 304.917 54.814 305.025 55.03C305.145 55.246 305.349 55.432 305.637 55.588C305.925 55.744 306.309 55.864 306.789 55.948C307.281 56.044 307.899 56.092 308.643 56.092C309.447 56.092 310.107 56.044 310.623 55.948C311.139 55.852 311.547 55.72 311.847 55.552C312.159 55.384 312.375 55.18 312.495 54.94C312.615 54.712 312.675 54.46 312.675 54.184ZM318.183 35.41V37.444C318.183 37.756 318.093 38.002 317.913 38.182C317.745 38.362 317.451 38.5 317.031 38.596L315.681 38.902C315.753 39.166 315.807 39.436 315.843 39.712C315.891 39.988 315.915 40.276 315.915 40.576C315.915 41.512 315.717 42.352 315.321 43.096C314.937 43.84 314.403 44.476 313.719 45.004C313.047 45.52 312.249 45.922 311.325 46.21C310.401 46.486 309.411 46.624 308.355 46.624C308.067 46.624 307.785 46.618 307.509 46.606C307.233 46.582 306.963 46.546 306.699 46.498C306.291 46.75 306.087 47.032 306.087 47.344C306.087 47.656 306.255 47.884 306.591 48.028C306.927 48.16 307.371 48.256 307.923 48.316C308.475 48.364 309.099 48.4 309.795 48.424C310.503 48.436 311.223 48.478 311.955 48.55C312.687 48.61 313.401 48.718 314.097 48.874C314.805 49.03 315.435 49.282 315.987 49.63C316.539 49.978 316.983 50.446 317.319 51.034C317.655 51.61 317.823 52.348 317.823 53.248C317.823 54.088 317.619 54.91 317.211 55.714C316.803 56.518 316.203 57.232 315.411 57.856C314.619 58.48 313.647 58.978 312.495 59.35C311.343 59.734 310.023 59.926 308.535 59.926C307.071 59.926 305.805 59.788 304.737 59.512C303.681 59.236 302.799 58.87 302.091 58.414C301.395 57.97 300.879 57.454 300.543 56.866C300.207 56.278 300.039 55.666 300.039 55.03C300.039 54.202 300.279 53.512 300.759 52.96C301.239 52.408 301.911 51.964 302.775 51.628C302.319 51.352 301.959 50.998 301.695 50.566C301.431 50.134 301.299 49.576 301.299 48.892C301.299 48.616 301.347 48.328 301.443 48.028C301.539 47.716 301.689 47.416 301.893 47.128C302.109 46.828 302.373 46.546 302.685 46.282C302.997 46.018 303.369 45.784 303.801 45.58C302.829 45.064 302.061 44.386 301.497 43.546C300.933 42.694 300.651 41.704 300.651 40.576C300.651 39.64 300.849 38.8 301.245 38.056C301.641 37.3 302.181 36.664 302.865 36.148C303.561 35.62 304.377 35.218 305.313 34.942C306.249 34.654 307.263 34.51 308.355 34.51C309.939 34.51 311.343 34.81 312.567 35.41H318.183ZM336.575 37.894H337.547C338.447 37.894 339.095 37.612 339.491 37.048L345.395 28.48C345.743 28.024 346.115 27.712 346.511 27.544C346.919 27.364 347.423 27.274 348.023 27.274H353.315L345.539 37.876C344.987 38.608 344.393 39.136 343.757 39.46C344.213 39.628 344.627 39.862 344.999 40.162C345.371 40.462 345.719 40.852 346.043 41.332L353.963 53.5H348.527C348.179 53.5 347.879 53.476 347.627 53.428C347.387 53.38 347.177 53.308 346.997 53.212C346.817 53.116 346.661 53.002 346.529 52.87C346.397 52.726 346.271 52.564 346.151 52.384L340.211 43.258C339.995 42.922 339.719 42.688 339.383 42.556C339.059 42.412 338.615 42.34 338.051 42.34H336.575V53.5H330.491V27.274H336.575V37.894ZM365.391 45.904C364.275 45.952 363.357 46.048 362.637 46.192C361.917 46.336 361.347 46.516 360.927 46.732C360.507 46.948 360.213 47.194 360.045 47.47C359.889 47.746 359.811 48.046 359.811 48.37C359.811 49.006 359.985 49.456 360.333 49.72C360.681 49.972 361.191 50.098 361.863 50.098C362.583 50.098 363.213 49.972 363.753 49.72C364.293 49.468 364.839 49.06 365.391 48.496V45.904ZM355.347 37.426C356.475 36.43 357.723 35.692 359.091 35.212C360.471 34.72 361.947 34.474 363.519 34.474C364.647 34.474 365.661 34.66 366.561 35.032C367.473 35.392 368.241 35.902 368.865 36.562C369.501 37.21 369.987 37.984 370.323 38.884C370.659 39.784 370.827 40.768 370.827 41.836V53.5H368.271C367.743 53.5 367.341 53.428 367.065 53.284C366.801 53.14 366.579 52.84 366.399 52.384L366.003 51.358C365.535 51.754 365.085 52.102 364.653 52.402C364.221 52.702 363.771 52.96 363.303 53.176C362.847 53.38 362.355 53.53 361.827 53.626C361.311 53.734 360.735 53.788 360.099 53.788C359.247 53.788 358.473 53.68 357.777 53.464C357.081 53.236 356.487 52.906 355.995 52.474C355.515 52.042 355.143 51.508 354.879 50.872C354.615 50.224 354.483 49.48 354.483 48.64C354.483 47.968 354.651 47.29 354.987 46.606C355.323 45.91 355.905 45.28 356.733 44.716C357.561 44.14 358.677 43.66 360.081 43.276C361.485 42.892 363.255 42.676 365.391 42.628V41.836C365.391 40.744 365.163 39.958 364.707 39.478C364.263 38.986 363.627 38.74 362.799 38.74C362.139 38.74 361.599 38.812 361.179 38.956C360.759 39.1 360.381 39.262 360.045 39.442C359.721 39.622 359.403 39.784 359.091 39.928C358.779 40.072 358.407 40.144 357.975 40.144C357.591 40.144 357.267 40.048 357.003 39.856C356.739 39.664 356.523 39.436 356.355 39.172L355.347 37.426ZM374.894 53.5V34.834H378.35C379.046 34.834 379.502 35.146 379.718 35.77L380.024 36.778C380.336 36.454 380.66 36.16 380.996 35.896C381.332 35.62 381.692 35.386 382.076 35.194C382.472 34.99 382.892 34.834 383.336 34.726C383.792 34.606 384.29 34.546 384.83 34.546C385.958 34.546 386.888 34.84 387.62 35.428C388.364 36.004 388.928 36.778 389.312 37.75C389.624 37.174 390.002 36.682 390.446 36.274C390.902 35.866 391.388 35.536 391.904 35.284C392.432 35.032 392.984 34.846 393.56 34.726C394.148 34.606 394.73 34.546 395.306 34.546C396.374 34.546 397.322 34.708 398.15 35.032C398.978 35.344 399.668 35.806 400.22 36.418C400.784 37.018 401.21 37.762 401.498 38.65C401.786 39.526 401.93 40.522 401.93 41.638V53.5H396.35V41.638C396.35 39.706 395.522 38.74 393.866 38.74C393.11 38.74 392.48 38.992 391.976 39.496C391.484 39.988 391.238 40.702 391.238 41.638V53.5H385.658V41.638C385.658 40.57 385.448 39.82 385.028 39.388C384.608 38.956 383.99 38.74 383.174 38.74C382.67 38.74 382.19 38.854 381.734 39.082C381.29 39.31 380.87 39.616 380.474 40V53.5H374.894ZM411.721 34.834V53.5H406.141V34.834H411.721ZM412.297 29.722C412.297 30.166 412.207 30.586 412.027 30.982C411.847 31.366 411.601 31.708 411.289 32.008C410.977 32.296 410.611 32.53 410.191 32.71C409.783 32.878 409.345 32.962 408.877 32.962C408.421 32.962 407.995 32.878 407.599 32.71C407.203 32.53 406.849 32.296 406.537 32.008C406.237 31.708 405.997 31.366 405.817 30.982C405.649 30.586 405.565 30.166 405.565 29.722C405.565 29.266 405.649 28.84 405.817 28.444C405.997 28.048 406.237 27.7 406.537 27.4C406.849 27.1 407.203 26.866 407.599 26.698C407.995 26.53 408.421 26.446 408.877 26.446C409.345 26.446 409.783 26.53 410.191 26.698C410.611 26.866 410.977 27.1 411.289 27.4C411.601 27.7 411.847 28.048 412.027 28.444C412.207 28.84 412.297 29.266 412.297 29.722Z" fill="#032C17"/>
</svg>
